# Blender 4.3.2
# www.blender.org
mtllib Sketchfab_2017_07_21_23_32_08.mtl
o Cube
v 1.094134 4.190394 4.179132
v -1.117459 3.596790 5.824320
v -1.094134 4.190394 4.179132
v -0.000000 1.422002 6.343263
v 1.117458 3.596790 5.824322
v 3.497246 0.292417 1.268820
v 2.981397 4.023195 2.175726
v -3.497246 0.292417 1.268820
v -2.981398 4.023194 2.175726
v 2.400001 5.915545 2.000000
v -2.400000 5.915545 2.000000
v -0.950549 0.687416 5.159028
v 0.950549 0.687416 5.159028
v 0.838377 0.369506 5.521166
v -0.838377 0.369506 5.521166
v 2.400001 4.576139 -0.054251
v -2.400000 4.576140 -0.054250
v 3.015218 1.288587 -0.478552
v -3.015218 1.288587 -0.478552
v 1.137060 4.944423 3.862803
v -1.137060 4.944423 3.862802
v 0.900000 4.576139 -0.054252
v -0.900000 4.576139 -0.054252
v -1.497969 6.905675 -0.489121
v -2.988000 6.905675 -0.478834
v -3.598369 5.273303 -1.000000
v 2.988000 6.905675 -0.478834
v 3.598369 5.273303 -1.000000
v 1.497968 6.905675 -0.489121
v -2.400000 3.917437 -4.208933
v 3.015560 0.780077 -5.478834
v -3.015559 0.780077 -5.478834
v 2.400001 3.917437 -4.208933
v 5.712814 1.232248 -0.493406
v 3.669602 3.856560 -2.000000
v 5.587777 1.083090 -4.208784
v 3.878283 3.350897 -4.223952
v -5.712813 1.232247 -0.493406
v -3.669602 3.856560 -2.000000
v -5.587774 1.083090 -4.208784
v -3.878281 3.350897 -4.223952
v -3.004510 0.288608 -4.208933
v -3.006504 0.258031 -0.475550
v -5.391220 0.289421 -4.208486
v -5.505131 0.285791 -0.475042
v 3.004511 0.288609 -4.208933
v 3.006504 0.258032 -0.475550
v 5.391222 0.289422 -4.208486
v 5.505132 0.285792 -0.475042
v -5.287652 0.767752 0.859347
v -4.004098 0.778974 1.219254
v -5.224244 0.288608 0.999387
v -4.077236 0.288587 1.339185
v 5.287653 0.767753 0.859346
v 4.004098 0.778974 1.219253
v 5.224245 0.288609 0.999386
v 4.077236 0.288588 1.339185
v -0.700000 2.629549 -4.818540
v -0.392000 3.561891 -4.365819
v 0.700000 2.629549 -4.818540
v 0.392000 3.561891 -4.365819
v -2.830291 6.404600 -2.893110
v 2.830291 6.404600 -2.893110
v -0.503462 2.714116 -6.428829
v -1.000000 2.244195 -5.711204
v -0.412085 3.547938 -6.507925
v -0.801702 3.925329 -5.741623
v 0.503461 2.714116 -6.428829
v 1.000000 2.244195 -5.711204
v 0.801702 3.925329 -5.741624
v 0.412085 3.547938 -6.507925
v 3.643051 0.290941 3.148952
v 2.500415 1.610265 5.473682
v 2.857918 3.288609 4.794485
v 4.585520 3.072634 2.000001
v -2.500415 1.610265 5.473680
v -3.643050 0.290940 3.148950
v -4.585520 3.072634 1.999999
v -2.857920 3.288608 4.794482
v 3.813118 2.740790 -5.656790
v -3.813117 2.740790 -5.656790
v 2.630492 2.964646 -5.644775
v -2.630492 2.964646 -5.644775
v 0.969688 1.194797 -5.339889
v -0.969687 1.194796 -5.339889
v 0.914408 1.846407 -5.069217
v -0.914407 1.846407 -5.069217
v 0.969688 1.194797 -1.875567
v -0.969687 1.194796 -1.875567
v -0.914407 1.846407 -3.814777
v -0.969687 1.194796 -3.926008
v 0.969688 1.194797 -3.926008
v 0.914408 1.846407 -3.814777
v 2.382164 1.194797 -1.875567
v 2.246361 1.846407 -1.923776
v -2.382163 1.194796 -1.875567
v -2.246360 1.846407 -1.923776
v -2.246360 1.846407 -3.814777
v 2.246361 1.846407 -3.814777
v -2.382163 1.194796 -3.926008
v 2.382164 1.194797 -3.926008
v 3.077962 1.554023 -5.100748
v 2.867655 2.747141 -5.191378
v 3.513554 2.624880 -5.197940
v -2.867654 2.747141 -5.191378
v -3.513553 2.624880 -5.197940
v -3.077961 1.554022 -5.100748
vn -0.0000 -1.0000 -0.0008
vn -0.0000 0.9406 0.3394
vn -0.5145 0.8540 0.0776
vn -0.0000 0.2321 0.9727
vn -0.2816 -0.6976 0.6588
vn -0.3630 0.8926 0.2675
vn 0.3240 0.0589 0.9442
vn 0.2816 -0.6976 0.6588
vn -0.5253 0.2207 0.8218
vn -0.5135 0.8196 0.2541
vn 0.3252 -0.7449 0.5826
vn -0.0000 -0.7515 -0.6597
vn -0.0000 -0.6156 0.7881
vn -0.8258 0.2717 0.4943
vn 0.8258 0.2717 0.4943
vn -0.8491 0.0918 0.5201
vn 0.9451 0.2738 -0.1785
vn -0.9451 0.2738 -0.1785
vn -0.0000 -0.8687 -0.4953
vn -0.3252 -0.7449 0.5826
vn -0.0000 0.3869 0.9221
vn -0.7204 0.2802 0.6345
vn 0.7204 0.2802 0.6345
vn -0.0000 0.8867 0.4623
vn -0.9677 0.2008 -0.1525
vn 0.9677 0.2008 -0.1525
vn -0.8530 0.2988 0.4280
vn -0.9177 0.2427 0.3146
vn 0.6764 -0.6170 0.4023
vn -0.0365 -0.8513 -0.5235
vn 0.9835 -0.1765 -0.0408
vn -0.0026 0.9289 0.3704
vn -0.0000 -0.8049 -0.5934
vn 0.8563 0.1263 -0.5009
vn 0.0014 0.9791 -0.2033
vn 0.9120 0.3856 -0.1396
vn 0.9177 0.2427 0.3146
vn 0.8530 0.2988 0.4280
vn -0.0000 0.8377 -0.5462
vn -0.0108 0.3770 -0.9262
vn -0.0000 -0.9949 0.1012
vn -0.0000 0.9877 -0.1566
vn -0.9999 0.0126 -0.0005
vn 0.7977 0.6009 -0.0510
vn -0.9239 -0.3655 0.1136
vn 0.3046 0.9407 -0.1491
vn 0.0153 0.5068 0.8619
vn -0.8038 0.5919 -0.0592
vn -0.3507 0.9198 -0.1762
vn -0.9736 -0.2265 -0.0268
vn -0.3955 0.2923 -0.8707
vn -0.0058 -1.0000 -0.0047
vn 0.9999 0.0126 -0.0005
vn -0.0004 -0.9326 -0.3609
vn 0.8624 0.0044 0.5063
vn 0.0058 -1.0000 -0.0047
vn -0.8624 0.0044 0.5063
vn 0.4505 -0.1119 -0.8857
vn 0.9736 -0.2265 -0.0268
vn -0.2688 0.2520 0.9297
vn -0.0043 -0.9999 0.0143
vn -0.9795 -0.0750 0.1868
vn -0.1071 0.9295 0.3528
vn 0.2688 0.2520 0.9297
vn 0.0216 0.9610 0.2759
vn 0.0111 -0.9999 0.0040
vn 0.9517 -0.2044 0.2289
vn -0.0000 -0.0944 -0.9955
vn -0.0000 -0.9181 0.3963
vn -0.0000 -0.4368 0.8996
vn -0.0000 0.9668 0.2554
vn 0.9351 0.1540 0.3191
vn -0.6607 -0.0618 -0.7481
vn -0.8563 0.1263 -0.5009
vn -0.0014 0.9791 -0.2033
vn 0.3955 0.2923 -0.8707
vn -0.8581 0.0767 -0.5077
vn -0.0000 -0.8366 -0.5478
vn -0.0000 0.8971 -0.4418
vn 0.8581 0.0767 -0.5077
vn -0.9351 0.1540 0.3191
vn 0.5145 0.8540 0.0776
vn -0.4505 -0.1119 -0.8857
vn 0.0004 -0.9326 -0.3609
vn 0.3630 0.8926 0.2675
vn 0.5135 0.8196 0.2541
vn -0.0000 -0.9811 0.1935
vn 0.3428 0.8852 0.3145
vn -0.3428 0.8852 0.3145
vn -0.8707 -0.0958 0.4823
vn 0.8707 -0.0958 0.4823
vn 0.6607 -0.0618 -0.7481
vn -0.0153 0.5068 0.8619
vn 0.8491 0.0918 0.5201
vn 0.0026 0.9289 0.3704
vn -0.3046 0.9407 -0.1491
vn 0.3507 0.9198 -0.1762
vn -0.1777 -0.9203 -0.3485
vn -0.9027 0.1279 -0.4108
vn -0.1526 0.8346 -0.5293
vn 0.9239 -0.3655 0.1136
vn 0.3272 0.8640 -0.3828
vn -0.9835 -0.1765 -0.0408
vn 0.0365 -0.8513 -0.5235
vn -0.9120 0.3856 -0.1396
vn -0.6764 -0.6170 0.4023
vn 0.9351 -0.3469 -0.0728
vn -0.9351 -0.3469 -0.0728
vn 0.8512 0.0307 0.5239
vn 0.5253 0.2207 0.8218
vn -0.3240 0.0589 0.9442
vn 0.7173 0.2344 0.6561
vn -0.7173 0.2344 0.6561
vn -0.8512 0.0307 0.5239
vn -0.0000 0.3177 -0.9482
vn -0.0000 0.3836 -0.9235
vn 0.0153 0.3847 -0.9229
vn -0.0000 1.0000 -0.0000
vn -0.0000 -0.1683 0.9857
vn 0.9964 -0.0845 -0.0000
vn -0.9964 -0.0845 -0.0000
vn 0.9790 -0.2040 -0.0000
vn -0.9790 -0.2040 -0.0000
vn -0.0000 -0.0738 -0.9973
vn -0.0000 -1.0000 -0.0000
vn -0.0153 0.3847 -0.9229
vn 0.0108 0.3770 -0.9262
vn 0.0253 -0.0802 -0.9965
vn -0.0253 -0.0802 -0.9965
vn 0.8323 0.2960 -0.4686
vn -0.8323 0.2960 -0.4686
vn 0.1777 -0.9203 -0.3485
vn 0.9027 0.1279 -0.4108
vn -0.7977 0.6009 -0.0510
vn 0.8038 0.5919 -0.0592
vn -0.3272 0.8640 -0.3828
vn 0.1526 0.8346 -0.5293
vn 0.9555 0.1176 0.2704
vn -0.9555 0.1176 0.2704
vn 0.1071 0.9295 0.3528
vn -0.0216 0.9610 0.2759
vn -0.9517 -0.2044 0.2289
vn 0.9795 -0.0750 0.1868
vn 0.0043 -0.9999 0.0143
vn -0.0111 -0.9999 0.0040
vt 0.832031 0.136719
vt 0.781250 0.136719
vt 0.781250 0.378906
vt 0.832031 0.378906
vt 0.394531 0.894531
vt 0.507812 0.894531
vt 0.507812 0.847656
vt 0.394531 0.847656
vt 0.894531 0.250000
vt 0.894531 0.144531
vt 0.855469 0.250000
vt 0.660156 0.894531
vt 0.765625 0.929688
vt 0.765625 0.855469
vt 0.757812 0.847656
vt 0.652344 0.886719
vt 0.652344 0.847656
vt 0.660156 0.636719
vt 0.765625 0.531250
vt 0.765625 0.636719
vt 0.015625 0.765625
vt 0.121094 0.765625
vt 0.121094 0.660156
vt 0.054688 0.917969
vt 0.054688 0.960938
vt 0.015625 0.960938
vt 0.765625 0.789062
vt 0.765625 0.832031
vt 0.660156 0.832031
vt 0.636719 0.894531
vt 0.636719 0.855469
vt 0.531250 0.894531
vt 0.894531 0.765625
vt 0.855469 0.765625
vt 0.894531 0.660156
vt 0.960938 0.703125
vt 0.960938 0.652344
vt 0.945312 0.652344
vt 0.945312 0.703125
vt 0.007812 0.910156
vt 0.046875 0.910156
vt 0.007812 0.953125
vt 0.960938 0.402344
vt 0.953125 0.445312
vt 0.960938 0.445312
vt 0.953125 0.394531
vt 0.945312 0.433594
vt 0.945312 0.394531
vt 0.636719 0.660156
vt 0.531250 0.765625
vt 0.636719 0.765625
vt 0.273438 0.894531
vt 0.378906 0.855469
vt 0.378906 0.894531
vt 0.265625 0.847656
vt 0.265625 0.886719
vt 0.371094 0.847656
vt 0.265625 0.121094
vt 0.507812 0.121094
vt 0.507812 0.007812
vt 0.265625 0.007812
vt 0.847656 0.652344
vt 0.847656 0.757812
vt 0.886719 0.652344
vt 0.925781 0.265625
vt 0.910156 0.265625
vt 0.910156 0.378906
vt 0.925781 0.378906
vt 0.144531 0.894531
vt 0.250000 0.894531
vt 0.250000 0.855469
vt 0.136719 0.886719
vt 0.136719 0.847656
vt 0.242188 0.847656
vt 0.507812 0.136719
vt 0.394531 0.136719
vt 0.394531 0.250000
vt 0.507812 0.250000
vt 0.636719 0.636719
vt 0.531250 0.636719
vt 0.636719 0.531250
vt 0.523438 0.523438
vt 0.523438 0.628906
vt 0.628906 0.523438
vt 0.765625 0.250000
vt 0.660156 0.250000
vt 0.765625 0.144531
vt 0.894531 0.531250
vt 0.894531 0.636719
vt 0.855469 0.636719
vt 0.636719 0.832031
vt 0.636719 0.789062
vt 0.531250 0.832031
vt 0.402344 0.765625
vt 0.507812 0.660156
vt 0.507812 0.765625
vt 0.378906 0.789062
vt 0.273438 0.832031
vt 0.378906 0.832031
vt 0.832031 0.402344
vt 0.832031 0.507812
vt 0.789062 0.507812
vt 0.953125 0.121094
vt 0.992188 0.082031
vt 0.992188 0.121094
vt 0.144531 0.765625
vt 0.250000 0.660156
vt 0.250000 0.765625
vt 0.507812 0.832031
vt 0.402344 0.832031
vt 0.507812 0.789062
vt 0.894531 0.378906
vt 0.894531 0.273438
vt 0.855469 0.378906
vt 0.847656 0.523438
vt 0.847656 0.628906
vt 0.886719 0.523438
vt 0.652344 0.136719
vt 0.652344 0.242188
vt 0.757812 0.136719
vt 0.507812 0.265625
vt 0.394531 0.265625
vt 0.394531 0.378906
vt 0.507812 0.378906
vt 0.531250 0.250000
vt 0.636719 0.144531
vt 0.636719 0.250000
vt 0.250000 0.265625
vt 0.007812 0.265625
vt 0.007812 0.507812
vt 0.250000 0.507812
vt 0.082031 0.250000
vt 0.007812 0.250000
vt 0.007812 0.007812
vt 0.250000 0.007812
vt 0.250000 0.250000
vt 0.175781 0.250000
vt 0.136719 0.574219
vt 0.378906 0.574219
vt 0.378906 0.523438
vt 0.136719 0.523438
vt 0.265625 0.652344
vt 0.265625 0.765625
vt 0.378906 0.765625
vt 0.832031 0.660156
vt 0.789062 0.765625
vt 0.832031 0.765625
vt 0.765625 0.402344
vt 0.660156 0.507812
vt 0.765625 0.507812
vt 0.894531 0.121094
vt 0.789062 0.121094
vt 0.894531 0.015625
vt 0.636719 0.265625
vt 0.523438 0.265625
vt 0.523438 0.378906
vt 0.250000 0.789062
vt 0.250000 0.832031
vt 0.144531 0.832031
vt 0.925781 0.507812
vt 0.925781 0.394531
vt 0.910156 0.394531
vt 0.910156 0.507812
vt 0.660156 0.378906
vt 0.765625 0.378906
vt 0.765625 0.273438
vt 0.507812 0.523438
vt 0.394531 0.523438
vt 0.394531 0.636719
vt 0.507812 0.636719
vt 0.136719 0.636719
vt 0.378906 0.636719
vt 0.378906 0.589844
vt 0.136719 0.589844
vt 0.789062 0.636719
vt 0.832031 0.636719
vt 0.832031 0.531250
vt 0.925781 0.523438
vt 0.910156 0.523438
vt 0.910156 0.636719
vt 0.925781 0.636719
vt 0.765625 0.007812
vt 0.652344 0.007812
vt 0.652344 0.121094
vt 0.765625 0.121094
vt 0.183594 0.925781
vt 0.183594 0.910156
vt 0.074219 0.910156
vt 0.074219 0.925781
vt 0.339844 0.925781
vt 0.445312 0.917969
vt 0.445312 0.925781
vt 0.925781 0.765625
vt 0.925781 0.652344
vt 0.910156 0.652344
vt 0.910156 0.765625
vt 0.332031 0.992188
vt 0.378906 0.992188
vt 0.378906 0.976562
vt 0.332031 0.976562
vt 0.203125 0.910156
vt 0.203125 0.960938
vt 0.250000 0.960938
vt 0.945312 0.589844
vt 0.945312 0.636719
vt 0.960938 0.636719
vt 0.265625 0.910156
vt 0.265625 0.960938
vt 0.316406 0.960938
vt 0.203125 0.992188
vt 0.250000 0.992188
vt 0.250000 0.976562
vt 0.203125 0.976562
vt 0.636719 0.910156
vt 0.589844 0.910156
vt 0.589844 0.960938
vt 0.832031 0.910156
vt 0.781250 0.910156
vt 0.781250 0.960938
vt 0.960938 0.332031
vt 0.945312 0.332031
vt 0.945312 0.378906
vt 0.960938 0.847656
vt 0.945312 0.847656
vt 0.945312 0.863281
vt 0.960938 0.863281
vt 0.460938 0.960938
vt 0.507812 0.960938
vt 0.507812 0.945312
vt 0.460938 0.945312
vt 0.992188 0.007812
vt 0.945312 0.007812
vt 0.945312 0.054688
vt 0.992188 0.054688
vt 0.121094 0.945312
vt 0.074219 0.945312
vt 0.074219 0.992188
vt 0.121094 0.992188
vt 0.136719 0.945312
vt 0.136719 0.992188
vt 0.183594 0.992188
vt 0.121094 0.789062
vt 0.015625 0.894531
vt 0.121094 0.894531
vt 0.136719 0.652344
vt 0.136719 0.757812
vt 0.242188 0.652344
vt 0.500000 0.781250
vt 0.394531 0.781250
vt 0.394531 0.824219
vt 0.652344 0.265625
vt 0.757812 0.265625
vt 0.652344 0.371094
vt 0.960938 0.183594
vt 0.960938 0.136719
vt 0.945312 0.136719
vt 0.945312 0.183594
vt 0.332031 0.960938
vt 0.378906 0.960938
vt 0.378906 0.945312
vt 0.332031 0.945312
vt 0.960938 0.250000
vt 0.960938 0.203125
vt 0.945312 0.203125
vt 0.945312 0.250000
vt 0.394531 0.960938
vt 0.445312 0.960938
vt 0.445312 0.945312
vt 0.394531 0.945312
vt 0.960938 0.910156
vt 0.910156 0.910156
vt 0.910156 0.960938
vt 0.847656 0.136719
vt 0.886719 0.136719
vt 0.847656 0.242188
vt 0.332031 0.917969
vt 0.433594 0.910156
vt 0.332031 0.910156
vt 0.781250 0.523438
vt 0.824219 0.523438
vt 0.781250 0.628906
vt 0.757812 0.523438
vt 0.652344 0.523438
vt 0.652344 0.628906
vt 0.628906 0.847656
vt 0.523438 0.886719
vt 0.523438 0.847656
vt 0.378906 0.136719
vt 0.265625 0.136719
vt 0.265625 0.378906
vt 0.378906 0.378906
vt 0.855469 0.960938
vt 0.894531 0.960938
vt 0.894531 0.917969
vt 0.886719 0.910156
vt 0.847656 0.953125
vt 0.847656 0.910156
vt 0.765625 0.765625
vt 0.660156 0.765625
vt 0.765625 0.660156
vt 0.757812 0.652344
vt 0.652344 0.652344
vt 0.652344 0.757812
vt 0.007812 0.886719
vt 0.007812 0.781250
vt 0.113281 0.781250
vt 0.886719 0.007812
vt 0.781250 0.007812
vt 0.781250 0.113281
vt 0.628906 0.652344
vt 0.523438 0.757812
vt 0.523438 0.652344
vt 0.781250 0.394531
vt 0.781250 0.500000
vt 0.824219 0.394531
vt 0.945312 0.074219
vt 0.945312 0.113281
vt 0.984375 0.074219
vt 0.757812 0.394531
vt 0.652344 0.500000
vt 0.652344 0.394531
vt 0.136719 0.781250
vt 0.136719 0.824219
vt 0.242188 0.781250
vt 0.960938 0.878906
vt 0.945312 0.878906
vt 0.945312 0.894531
vt 0.960938 0.894531
vt 0.523438 0.960938
vt 0.574219 0.960938
vt 0.574219 0.945312
vt 0.523438 0.945312
vt 0.718750 0.941406
vt 0.718750 0.992188
vt 0.765625 0.992188
vt 0.824219 0.652344
vt 0.781250 0.757812
vt 0.781250 0.652344
vt 0.703125 0.941406
vt 0.652344 0.941406
vt 0.652344 0.992188
vt 0.371094 0.781250
vt 0.265625 0.824219
vt 0.265625 0.781250
vt 0.500000 0.652344
vt 0.394531 0.652344
vt 0.394531 0.757812
vt 0.847656 0.265625
vt 0.886719 0.265625
vt 0.847656 0.371094
vt 0.628906 0.781250
vt 0.523438 0.824219
vt 0.523438 0.781250
vt 0.894531 0.402344
vt 0.855469 0.507812
vt 0.894531 0.507812
vt 0.847656 0.394531
vt 0.886719 0.394531
vt 0.847656 0.500000
vt 0.121094 0.636719
vt 0.015625 0.636719
vt 0.121094 0.531250
vt 0.652344 0.781250
vt 0.652344 0.824219
vt 0.757812 0.781250
vt 0.007812 0.652344
vt 0.113281 0.652344
vt 0.007812 0.757812
vt 0.917969 0.894531
vt 0.925781 0.789062
vt 0.925781 0.894531
vt 0.917969 0.781250
vt 0.910156 0.781250
vt 0.910156 0.886719
vt 0.113281 0.523438
vt 0.007812 0.523438
vt 0.007812 0.628906
vt 0.636719 0.394531
vt 0.523438 0.394531
vt 0.523438 0.507812
vt 0.636719 0.507812
vt 0.636719 0.007812
vt 0.523438 0.007812
vt 0.523438 0.121094
vt 0.636719 0.121094
vt 0.468750 0.925781
vt 0.574219 0.925781
vt 0.574219 0.917969
vt 0.781250 0.781250
vt 0.832031 0.781250
vt 0.832031 0.828125
vt 0.832031 0.894531
vt 0.781250 0.894531
vt 0.781250 0.828125
vt 0.054688 0.992188
vt 0.054688 0.976562
vt 0.007812 0.976562
vt 0.007812 0.992188
vt 0.960938 0.460938
vt 0.945312 0.460938
vt 0.945312 0.507812
vt 0.960938 0.507812
vt 0.507812 0.992188
vt 0.507812 0.976562
vt 0.460938 0.976562
vt 0.460938 0.992188
vt 0.960938 0.265625
vt 0.945312 0.265625
vt 0.945312 0.316406
vt 0.960938 0.316406
vt 0.574219 0.992188
vt 0.574219 0.976562
vt 0.523438 0.976562
vt 0.523438 0.992188
vt 0.894531 0.781250
vt 0.847656 0.781250
vt 0.847656 0.832031
vt 0.894531 0.832031
vt 0.894531 0.847656
vt 0.847656 0.847656
vt 0.847656 0.894531
vt 0.894531 0.894531
vt 0.925781 0.078125
vt 0.925781 0.179688
vt 0.925781 0.250000
vt 0.910156 0.242188
vt 0.910156 0.015625
vt 0.925781 0.007812
vt 0.507812 0.394531
vt 0.507812 0.507812
vt 0.363281 0.507812
vt 0.363281 0.472656
vt 0.265625 0.472656
vt 0.265625 0.429688
vt 0.363281 0.429688
vt 0.363281 0.394531
vt 0.960938 0.781250
vt 0.945312 0.781250
vt 0.945312 0.832031
vt 0.960938 0.832031
vt 0.460938 0.910156
vt 0.566406 0.910156
vt 0.460938 0.917969
vt 0.523438 0.242188
vt 0.628906 0.136719
vt 0.523438 0.136719
vt 0.953125 0.574219
vt 0.960938 0.531250
vt 0.960938 0.574219
vt 0.945312 0.566406
vt 0.953125 0.523438
vt 0.945312 0.523438
vt 0.394531 0.992188
vt 0.445312 0.992188
vt 0.445312 0.976562
vt 0.394531 0.976562
vt 0.960938 0.765625
vt 0.960938 0.718750
vt 0.945312 0.718750
vt 0.945312 0.765625
vt 0.992188 0.136719
vt 0.976562 0.136719
vt 0.976562 0.152344
vt 0.992188 0.152344
vt 0.265625 0.992188
vt 0.316406 0.992188
vt 0.316406 0.976562
vt 0.265625 0.976562
vt 0.636719 0.378906
vt 0.378906 0.652344
vt 0.765625 0.941406
vt 0.703125 0.992188
vt 0.183594 0.945312
vt 0.960938 0.960938
vt 0.636719 0.960938
vt 0.316406 0.910156
vt 0.960938 0.589844
vt 0.960938 0.378906
vt 0.832031 0.960938
vt 0.250000 0.910156
s 0
usemtl Material
f 77/1/1 8/2/1 6/3/1 72/4/1
f 1/5/2 3/6/2 2/7/2 5/8/2
f 9/9/3 17/10/3 78/11/3
f 4/12/4 5/13/4 2/14/4
f 4/15/5 76/16/5 12/17/5
f 3/18/6 9/19/6 79/20/6
f 5/21/7 4/22/7 73/23/7
f 4/24/8 13/25/8 73/26/8
f 2/27/9 79/28/9 76/29/9
f 9/30/10 78/31/10 79/32/10
f 73/33/11 13/34/11 72/35/11
f 12/36/12 13/37/12 14/38/12 15/39/12
f 4/40/13 15/41/13 14/42/13
f 4/43/14 12/44/14 15/45/14
f 13/46/15 4/47/15 14/48/15
f 19/49/16 17/50/16 39/51/16
f 16/52/17 10/53/17 7/54/17
f 9/55/18 11/56/18 17/57/18
f 6/58/19 8/59/19 19/60/19 18/61/19
f 76/62/20 77/63/20 12/64/20
f 1/65/21 20/66/21 21/67/21 3/68/21
f 21/69/22 11/70/22 9/71/22
f 7/72/23 10/73/23 20/74/23
f 20/75/24 10/76/24 11/77/24 21/78/24
f 19/79/25 8/80/25 17/81/25
f 18/82/26 16/83/26 6/84/26
f 29/85/27 22/86/27 10/87/27
f 11/88/28 25/89/28 26/90/28
f 16/91/29 28/92/29 10/93/29
f 62/94/30 23/95/30 26/96/30
f 30/97/31 32/98/31 83/99/31
f 10/100/32 27/101/32 29/102/32
f 22/103/33 28/104/33 16/105/33
f 23/106/34 62/107/34 24/108/34
f 27/109/35 63/110/35 29/111/35
f 28/112/36 63/113/36 27/114/36
f 27/115/37 10/116/37 28/117/37
f 24/118/38 11/119/38 23/120/38
f 22/121/39 23/122/39 11/123/39 10/124/39
f 32/125/40 30/126/40 87/127/40
f 18/128/41 19/129/41 32/130/41 31/131/41
f 22/132/42 16/133/42 33/134/42 30/135/42 17/136/42 23/137/42
f 18/138/43 31/139/43 46/140/43 47/141/43
f 34/142/44 36/143/44 37/144/44
f 32/145/45 41/146/45 81/147/45
f 33/148/46 16/149/46 35/150/46
f 18/151/47 34/152/47 35/153/47
f 38/154/48 39/155/48 41/156/48
f 30/157/49 41/158/49 39/159/49
f 38/160/50 40/161/50 44/162/50 45/163/50
f 32/164/51 40/165/51 41/166/51
f 42/167/52 43/168/52 45/169/52 44/170/52
f 32/171/53 19/172/53 43/173/53 42/174/53
f 32/175/54 42/176/54 44/177/54
f 43/178/55 19/179/55 51/180/55 53/181/55
f 47/182/56 46/183/56 48/184/56 49/185/56
f 18/186/57 47/187/57 57/188/57 55/189/57
f 31/190/58 36/191/58 48/192/58
f 36/193/59 34/194/59 49/195/59 48/196/59
f 51/197/60 50/198/60 52/199/60 53/200/60
f 43/201/61 53/202/61 52/203/61
f 45/204/62 52/205/62 50/206/62
f 38/207/63 50/208/63 51/209/63
f 54/210/64 55/211/64 57/212/64 56/213/64
f 34/214/65 18/215/65 55/216/65
f 47/217/66 49/218/66 56/219/66
f 49/220/67 34/221/67 54/222/67
f 64/223/68 66/224/68 71/225/68 68/226/68
f 65/227/69 69/228/69 60/229/69 58/230/69
f 60/231/70 61/232/70 59/233/70 58/234/70
f 70/235/71 67/236/71 59/237/71 61/238/71
f 70/239/72 61/240/72 60/241/72
f 17/242/73 8/243/73 78/244/73
f 29/245/74 63/246/74 22/247/74
f 62/248/75 25/249/75 24/250/75
f 36/251/76 31/252/76 37/253/76
f 66/254/77 64/255/77 65/256/77 67/257/77
f 69/258/78 65/259/78 64/260/78 68/261/78
f 67/262/79 70/263/79 71/264/79 66/265/79
f 70/266/80 69/267/80 68/268/80 71/269/80
f 58/270/81 59/271/81 67/272/81
f 7/273/82 75/274/82 16/275/82
f 40/276/83 32/277/83 44/278/83
f 46/279/84 31/280/84 48/281/84
f 1/282/85 74/283/85 7/284/85
f 74/285/86 75/286/86 7/287/86
f 12/288/87 77/289/87 72/290/87 13/291/87
f 1/292/88 5/293/88 74/294/88
f 3/295/89 79/296/89 2/297/89
f 77/298/90 76/299/90 78/300/90
f 73/301/91 72/302/91 75/303/91
f 16/304/92 75/305/92 6/306/92
f 38/307/93 19/308/93 39/309/93
f 16/310/94 18/311/94 35/312/94
f 25/313/95 11/314/95 24/315/95
f 17/316/33 26/317/33 23/318/33
f 17/319/96 30/320/96 39/321/96
f 37/322/97 33/323/97 35/324/97
f 82/325/98 80/326/98 104/327/98 103/328/98
f 83/329/99 32/330/99 107/331/99 105/332/99
f 30/333/100 83/334/100 81/335/100
f 37/336/101 31/337/101 80/338/101
f 33/339/102 37/340/102 80/341/102
f 31/342/103 33/343/103 82/344/103
f 63/345/104 28/346/104 22/347/104
f 26/348/105 25/349/105 62/350/105
f 11/351/106 26/352/106 17/353/106
f 75/354/107 72/355/107 6/356/107
f 8/357/108 77/358/108 78/359/108
f 74/360/109 73/361/109 75/362/109
f 74/363/110 5/364/110 73/365/110
f 4/366/111 2/367/111 76/368/111
f 1/369/112 7/370/112 20/371/112
f 3/372/113 21/373/113 9/374/113
f 76/375/114 79/376/114 78/377/114
f 31/378/115 32/379/115 85/380/115 84/381/115
f 30/382/116 33/383/116 86/384/116 87/385/116
f 31/386/117 84/387/117 86/388/117
f 84/389/118 85/390/118 91/391/118 89/392/118 88/393/118 92/394/118
f 93/395/119 92/396/119 101/397/119 99/398/119
f 85/399/120 87/400/120 90/401/120 91/402/120
f 86/403/121 84/404/121 92/405/121 93/406/121
f 100/407/122 98/408/122 97/409/122 96/410/122
f 99/411/123 101/412/123 94/413/123 95/414/123
f 92/415/118 88/416/118 94/417/118 101/418/118
f 89/419/118 91/420/118 100/421/118 96/422/118
f 88/423/124 89/424/124 96/425/124 97/426/124 95/427/124 94/428/124
f 95/429/125 97/430/125 98/431/125 90/432/125 87/433/125 86/434/125 93/435/125 99/436/125
f 91/437/119 90/438/119 98/439/119 100/440/119
f 85/441/126 32/442/126 87/443/126
f 33/444/127 31/445/127 86/446/127
f 105/447/128 107/448/128 106/449/128
f 102/450/129 103/451/129 104/452/129
f 32/453/130 81/454/130 106/455/130 107/456/130
f 80/457/131 31/458/131 102/459/131 104/460/131
f 81/461/132 83/462/132 105/463/132 106/464/132
f 31/465/133 82/466/133 103/467/133 102/468/133
f 40/469/134 38/154/134 41/156/134
f 35/470/135 34/142/135 37/144/135
f 41/471/136 30/333/136 81/335/136
f 82/472/137 33/339/137 80/341/137
f 69/473/138 70/239/138 60/241/138
f 65/474/139 58/270/139 67/272/139
f 54/475/140 34/214/140 55/216/140
f 19/476/141 38/207/141 51/209/141
f 38/477/142 45/204/142 50/206/142
f 56/478/143 49/220/143 54/222/143
f 57/479/144 47/217/144 56/219/144
f 45/480/145 43/201/145 52/203/145
